<?xml version="1.0" encoding="UTF-8" standalone="no"?>
<!-- Created with Inkscape (http://www.inkscape.org/) -->

<svg
   width="273.86627mm"
   height="169.39279mm"
   viewBox="0 0 273.86627 169.39279"
   version="1.1"
   id="svg5"
   sodipodi:docname="path1777.svg"
   inkscape:version="1.2.1 (9c6d41e410, 2022-07-14)"
   xmlns:inkscape="http://www.inkscape.org/namespaces/inkscape"
   xmlns:sodipodi="http://sodipodi.sourceforge.net/DTD/sodipodi-0.dtd"
   xmlns="http://www.w3.org/2000/svg"
   xmlns:svg="http://www.w3.org/2000/svg">
  <sodipodi:namedview
     id="namedview7"
     pagecolor="#7c7c7c"
     bordercolor="#666666"
     borderopacity="1.0"
     inkscape:showpageshadow="2"
     inkscape:pageopacity="0"
     inkscape:pagecheckerboard="0"
     inkscape:deskcolor="#d1d1d1"
     inkscape:document-units="mm"
     showgrid="false"
     inkscape:zoom="0.88250262"
     inkscape:cx="517.84549"
     inkscape:cy="230.02764"
     inkscape:window-width="1366"
     inkscape:window-height="745"
     inkscape:window-x="-8"
     inkscape:window-y="-8"
     inkscape:window-maximized="1"
     inkscape:current-layer="svg5" />
  <style
     id="style591">
.measure-arrow
{
}
.measure-label
{

}
.measure-line
{
}</style>
  <defs
     id="defs2" />
  <g
     id="layer1"
     transform="translate(16.552742,-70.838837)">
    <path
       id="path1777"
       style="mix-blend-mode:normal;fill:none;fill-opacity:0.532819;stroke:#ffffff;stroke-width:0.194;stroke-dasharray:none;stroke-opacity:0.7"
       d="m 16.217528,208.00769 a 73.782531,73.782531 0 0 0 104.342832,-0.51306 73.782531,73.782531 0 0 0 -0.51304,-104.34287 73.782531,73.782531 0 0 0 -104.342862,0.51306 73.782531,73.782531 0 0 0 0.51307,104.34287 z m 9.51905,-0.89643 a 66.759293,66.759293 0 0 0 85.296802,-0.41942 l -37.776052,-37.4064 a 14.981416,14.981416 0 0 1 -10.06347,-0.002 z m -8.71585,-8.63057 37.34129,-37.71034 a 14.981416,14.981416 0 0 1 -0.23582,-10.4288 l -37.52525,-37.15804 a 66.759293,66.759293 0 0 0 0.41978,85.29718 z m 102.643212,-0.5047 a 66.759293,66.759293 0 0 0 -0.41941,-85.29682 l -36.938782,37.30384 a 14.981416,14.981416 0 0 1 -0.17001,10.83202 z M 62.505968,141.37736 a 14.981416,14.981416 0 0 1 11.19227,-0.13433 L 110.52867,104.0486 a 66.759293,66.759293 0 0 0 -85.297162,0.41907 z m -0.81095,7.81586 a 9.0676985,9.0676985 0 0 1 12.82351,-0.0631 9.0676985,9.0676985 0 0 1 0.0631,12.82351 9.0676985,9.0676985 0 0 1 -12.82351,0.0631 9.0676985,9.0676985 0 0 1 -0.0631,-12.82351 z m 5.4161,5.36309 a 1.4455751,1.4455751 0 0 1 2.04432,-0.0101 1.4455751,1.4455751 0 0 1 0.0101,2.04432 1.4455751,1.4455751 0 0 1 -2.04433,0.0101 1.4455751,1.4455751 0 0 1 -0.0101,-2.04433 z m -3.06669,-3.03668 a 5.7613559,5.7613559 0 0 1 8.14769,-0.0401 5.7613559,5.7613559 0 0 1 0.0401,8.14769 5.7613559,5.7613559 0 0 1 -8.14769,0.0401 5.7613559,5.7613559 0 0 1 -0.0401,-8.14769 z m -44.42693,53.05449 a 68.950417,68.950417 0 0 0 97.509292,-0.47946 68.950417,68.950417 0 0 0 -0.47945,-97.50933 68.950417,68.950417 0 0 0 -97.509312,0.47946 68.950417,68.950417 0 0 0 0.47947,97.50933 z m 45.22721,-45.67573 c 1.82997,1.81206 4.79491,1.79748 6.60696,-0.0325 1.81204,-1.82998 1.79748,-4.7949 -0.0325,-6.60696 -1.82995,-1.81205 -4.7935,-1.7961 -6.60557,0.0335 -1.81204,1.82995 -1.79885,4.79351 0.0311,6.60557 z m 0.55933,-0.56485 c -1.52505,-1.51012 -1.53709,-3.95773 -0.027,-5.48278 1.51013,-1.52505 3.95774,-1.53708 5.48277,-0.027 1.52506,1.51012 1.53848,3.95911 0.028,5.48416 -1.51012,1.52504 -3.95911,1.53571 -5.48416,0.026 z m -59.7577696,54.28532 6.5018396,-4.37232 a 76.878319,76.878319 0 0 0 1.89696,1.95476 76.878319,76.878319 0 0 0 3.13809,2.88338 l -4.18891,6.64953 a 84.631859,84.631859 0 0 0 5.89852,4.61466 l 5.46181,-5.64072 a 76.878319,76.878319 0 0 0 0.0168,0.0109 76.878319,76.878319 0 0 0 5.88374,3.6895 76.878319,76.878319 0 0 0 0.006,0.004 l -2.70771,7.35627 a 84.631859,84.631859 0 0 0 6.71217,3.32733 l 4.16373,-6.64247 a 76.878319,76.878319 0 0 0 3.37479,1.30547 76.878319,76.878319 0 0 0 3.18326,1.07364 l -1.11624,7.74161 a 84.631859,84.631859 0 0 0 7.26615,1.84322 l 2.67753,-7.32579 a 76.878319,76.878319 0 0 0 0.002,3.2e-4 76.878319,76.878319 0 0 0 1.65226,0.27179 76.878319,76.878319 0 0 0 3.00694,0.43795 76.878319,76.878319 0 0 0 2.25334,0.26554 l 0.51621,7.79021 a 84.631859,84.631859 0 0 0 7.49231,0.27449 l 1.09873,-7.74081 a 76.878319,76.878319 0 0 0 2.95888,-0.12015 76.878319,76.878319 0 0 0 3.95804,-0.31618 76.878319,76.878319 0 0 0 0.0479,-0.004 l 2.12826,7.52396 a 84.631859,84.631859 0 0 0 7.37928,-1.30572 l -0.53615,-7.82157 a 76.878319,76.878319 0 0 0 6.68435,-1.88623 76.878319,76.878319 0 0 0 0.0223,-0.007 l 3.66897,6.96023 a 84.631859,84.631859 0 0 0 6.945872,-2.80105 l -2.15732,-7.56146 a 76.878319,76.878319 0 0 0 6.15577,-3.26124 l 5.02485,6.03236 a 84.631859,84.631859 0 0 0 6.238,-4.14923 l -3.67728,-6.93936 a 76.878319,76.878319 0 0 0 2.80585,-2.26072 76.878319,76.878319 0 0 0 2.52793,-2.22536 76.878319,76.878319 0 0 0 7.1e-4,-7.1e-4 l 6.15741,4.84694 a 84.631859,84.631859 0 0 0 2.11768,-1.98437 84.631859,84.631859 0 0 0 3.11162,-3.38695 l -5.01515,-5.99367 a 76.878319,76.878319 0 0 0 1.04903,-1.28045 76.878319,76.878319 0 0 0 1.892,-2.39618 76.878319,76.878319 0 0 0 1.35625,-1.81838 l 7.01938,3.4548 a 84.631859,84.631859 0 0 0 3.98356,-6.35108 l -6.16781,-4.83257 a 76.878319,76.878319 0 0 0 1.36843,-2.60846 76.878319,76.878319 0 0 0 1.7288,-3.63558 76.878319,76.878319 0 0 0 0.002,-0.002 l 7.59652,1.92381 a 84.631859,84.631859 0 0 0 2.55868,-7.04347 l -7.05774,-3.45425 a 76.878319,76.878319 0 0 0 1.71166,-6.74846 l 7.88051,0.304 a 84.631859,84.631859 0 0 0 1.04698,-7.41607 l -7.64361,-1.91736 a 76.878319,76.878319 0 0 0 -3e-5,-0.008 76.878319,76.878319 0 0 0 0.25269,-6.94663 l 7.75404,-1.33826 a 84.631859,84.631859 0 0 0 -0.4749,-7.47656 l -7.86433,-0.28508 a 76.878319,76.878319 0 0 0 -0.5569,-3.57173 76.878319,76.878319 0 0 0 -0.65926,-3.28035 76.878319,76.878319 0 0 0 -6.3e-4,-0.005 l 7.29098,-2.91529 a 84.631859,84.631859 0 0 0 -2.03682,-7.21456 l -7.71416,1.3494 a 76.878319,76.878319 0 0 0 -0.59423,-1.57603 76.878319,76.878319 0 0 0 -1.11845,-2.80928 76.878319,76.878319 0 0 0 -0.89344,-2.07881 l 6.5136,-4.35924 a 84.631859,84.631859 0 0 0 -3.50873,-6.62558 l -7.28104,2.93023 a 76.878319,76.878319 0 0 0 -1.58285,-2.50186 76.878319,76.878319 0 0 0 -2.26823,-3.29253 76.878319,76.878319 0 0 0 -0.005,-0.008 l 5.4725,-5.62577 a 84.631859,84.631859 0 0 0 -4.82022,-5.737386 l -6.52879,4.389996 a 76.878319,76.878319 0 0 0 -1.85177,-1.97618 76.878319,76.878319 0 0 0 -3.13258,-2.877926 l 4.21176,-6.68655 a 84.631859,84.631859 0 0 0 -5.88687,-4.62494 l -5.50255,5.68256 a 76.878319,76.878319 0 0 0 -5.89291,-3.69638 76.878319,76.878319 0 0 0 -3.5e-4,-3.7e-4 l 2.73438,-7.42875 a 84.631859,84.631859 0 0 0 -6.72151,-3.29584 l -4.186212,6.6791 a 76.878319,76.878319 0 0 0 -3.37918,-1.3069 76.878319,76.878319 0 0 0 -3.16167,-1.06754 76.878319,76.878319 0 0 0 -0.004,-8.8e-4 l 1.12898,-7.83157 a 84.631859,84.631859 0 0 0 -7.26093,-1.82279 l -2.70169,7.39279 a 76.878319,76.878319 0 0 0 -1.6925,-0.2789 76.878319,76.878319 0 0 0 -2.97731,-0.43408 76.878319,76.878319 0 0 0 -2.23215,-0.26491 l -0.52175,-7.86695 a 84.631859,84.631859 0 0 0 -7.48135,-0.27674 l -1.10967,7.8187 a 76.878319,76.878319 0 0 0 -2.97278,0.1195 76.878319,76.878319 0 0 0 -3.97522,0.31735 76.878319,76.878319 0 0 0 -0.007,8.7e-4 l -2.14088,-7.56921 a 84.631859,84.631859 0 0 0 -7.37648,1.2816 l 0.5405,7.88768 a 76.878319,76.878319 0 0 0 -7.3e-4,2e-5 76.878319,76.878319 0 0 0 -6.69895,1.88921 l -3.67969,-6.98102 a 84.631859,84.631859 0 0 0 -6.94931,2.78457 l 2.16624,7.59502 a 76.878319,76.878319 0 0 0 -0.005,0.002 76.878319,76.878319 0 0 0 -6.14485,3.25315 76.878319,76.878319 0 0 0 -0.002,0.001 l -5.05608,-6.06984 a 84.631859,84.631859 0 0 0 -6.22039,4.16595 l 3.6865,6.95722 a 76.878319,76.878319 0 0 0 -0.0634,0.0513 76.878319,76.878319 0 0 0 -2.7658,2.22764 76.878319,76.878319 0 0 0 -2.50575,2.20515 l -6.20057,-4.88101 a 84.631859,84.631859 0 0 0 -2.0762096,2.01742 84.631859,84.631859 0 0 0 -3.14031,3.35203 l 5.03758,6.020226 a 76.878319,76.878319 0 0 0 -2.18672,2.65561 76.878319,76.878319 0 0 0 -0.0701,0.0891 76.878319,76.878319 0 0 0 -2.05875,2.74596 l -7.0388,-3.46457 a 84.631859,84.631859 0 0 0 -3.98251,6.33975 l 6.17256996,4.83585 a 76.878319,76.878319 0 0 0 -0.003,0.006 76.878319,76.878319 0 0 0 -1.56957,3.02236 76.878319,76.878319 0 0 0 -0.0655,0.13227 76.878319,76.878319 0 0 0 -1.43940996,3.11124 l -7.60565,-1.92558 a 84.631859,84.631859 0 0 0 -2.5744304,7.02947 l 7.0368604,3.44377 a 76.878319,76.878319 0 0 0 -4.9e-4,0.004 76.878319,76.878319 0 0 0 -0.90793,3.29429 76.878319,76.878319 0 0 0 -0.0294,0.1127 76.878319,76.878319 0 0 0 -0.764,3.35896 76.878319,76.878319 0 0 0 -0.002,0.007 l -7.8370204,-0.30239 a 84.631859,84.631859 0 0 0 -1.05468,7.41209 l 7.5956904,1.90481 a 76.878319,76.878319 0 0 0 -0.25835,6.98393 l -7.7230104,1.33263 a 84.631859,84.631859 0 0 0 0.50592,7.46945 l 7.8263304,0.28382 a 76.878319,76.878319 0 0 0 0.002,0.0129 76.878319,76.878319 0 0 0 1.19434,6.87265 76.878319,76.878319 0 0 0 1e-5,7.4e-4 l -7.2716604,2.90753 a 84.631859,84.631859 0 0 0 2.04409,7.2021 l 7.7159804,-1.34977 a 76.878319,76.878319 0 0 0 2.59598,6.48389 76.878319,76.878319 0 0 0 0.003,0.006 l -6.50449,4.35299 a 84.631859,84.631859 0 0 0 3.4941,6.62125 l 7.26828,-2.92541 a 76.878319,76.878319 0 0 0 1.84643,2.89887 76.878319,76.878319 0 0 0 0.0964,0.1413 76.878319,76.878319 0 0 0 1.94297,2.76393 76.878319,76.878319 0 0 0 0.004,0.005 l -5.45540004,5.60852 a 84.631859,84.631859 0 0 0 4.79361004,5.7503 z M 21.508118,202.48928 c 0.97154,0.95049 2.4898,1.4076 3.75287,0.61152 2.08786,-1.31593 26.09212,-26.0709 34.44624,-34.71109 a 15.756041,15.756041 0 0 1 -2.54577,-1.99505 15.756041,15.756041 0 0 1 -1.81833,-2.16488 c -7.51163,7.4912 -32.72451,32.66594 -34.3079,34.68661 -0.92346,1.17852 -0.49865,2.62239 0.47288,3.57288 z m 38.12391,-38.32516 a 12.089602,12.089602 0 0 0 2.41838,1.80202 c 0.23242,-0.24041 0.71587,-0.74128 0.71587,-0.74128 3.37077,1.87734 7.47713,1.85852 10.83057,-0.0493 0,0 0.4905,0.50043 0.72167,0.73641 a 12.089602,12.089602 0 0 0 2.41074,-1.83162 12.089602,12.089602 0 0 0 1.79801,-2.41214 c -0.24043,-0.23111 -0.74716,-0.71946 -0.74716,-0.71946 1.87199,-3.37119 1.84918,-7.47488 -0.0602,-10.82504 0,0 0.50584,-0.49477 0.75274,-0.73603 a 12.089602,12.089602 0 0 0 -1.82792,-2.40417 12.089602,12.089602 0 0 0 -2.42315,-1.80456 c -0.24095,0.25187 -0.73107,0.76403 -0.73107,0.76403 -3.36596,-1.86633 -7.46098,-1.8448 -10.80715,0.0571 0,0 -0.4954,-0.51095 -0.73456,-0.75791 a 12.089602,12.089602 0 0 0 -2.40092,1.82534 12.089602,12.089602 0 0 0 -1.8401,2.4003 c 0.26151,0.25052 0.78532,0.75218 0.78532,0.75218 -1.87498,3.368 -1.8573,7.47011 0.0466,10.8218 0,0 -0.68153,0.67974 -0.76128,0.75886 a 12.089602,12.089602 0 0 0 1.85331,2.36388 z m -30.03804,-42.00404 c 8.22666,8.17342 19.67859,19.20635 25.3298,24.63394 a 15.756041,15.756041 0 0 1 2.12813,-2.68162 15.756041,15.756041 0 0 1 2.08623,-1.76388 c -8.88884,-9.14366 -32.63267,-33.44594 -34.34239,-33.866 -2.10127,-0.51622 -4.62827,2.52923 -4.18438,4.22572 0.13874,0.53017 3.89001,4.39214 8.98264,9.45181 z m 72.162222,71.40151 c 5.11353,5.04826 9.05778,8.82088 9.71288,9.11531 2.09633,0.94219 5.1,-2.27766 4.18438,-4.22573 -0.75245,-1.60095 -25.577382,-25.63786 -34.496662,-34.24636 a 15.756041,15.756041 0 0 1 -1.71305,2.08031 15.756041,15.756041 0 0 1 -2.68122,2.11651 c 5.32376,5.42158 16.60343,16.87684 24.993662,25.15997 z M 81.368188,146.55145 c 9.06069,-8.87852 33.002592,-32.43383 33.861372,-34.30843 1.05731,-2.3079 -1.85903,-5.2881 -4.22574,-4.1844 -1.91619,0.8936 -25.059122,24.90301 -33.899952,34.11459 a 15.756041,15.756041 0 0 1 2.23033,1.82963 15.756041,15.756041 0 0 1 2.034,2.54861 z m 78.106902,41.8815 a 15.116761,15.116759 70.054377 0 1 19.36676,9.05325 15.116761,15.116759 70.054377 0 1 -9.05325,19.36676 15.116761,15.116759 70.054377 0 1 -19.36676,-9.05325 15.116761,15.116759 70.054377 0 1 9.05325,-19.36676 z m -1.67263,-4.60912 a 20.019995,20.019993 70.054377 0 1 25.64851,11.98974 20.019995,20.019993 70.054377 0 1 -11.98974,25.64851 20.019995,20.019993 70.054377 0 1 -25.64852,-11.98974 20.019995,20.019993 70.054377 0 1 11.98975,-25.64851 z m 6.30967,17.38697 a 1.5235522,1.5235522 0 0 1 1.95189,0.91243 1.5235522,1.5235522 0 0 1 -0.91244,1.9519 1.5235522,1.5235522 0 0 1 -1.95188,-0.91244 1.5235522,1.5235522 0 0 1 0.91243,-1.95189 z m -2.02116,-5.56952 a 7.4484773,7.4484773 0 0 1 9.54257,4.46081 7.4484773,7.4484773 0 0 1 -4.4608,9.54257 7.4484773,7.4484773 0 0 1 -9.54259,-4.4608 7.4484773,7.4484773 0 0 1 4.46082,-9.54258 z m 1.73242,4.77387 a 2.3699701,2.3699701 0 0 1 3.03628,1.41935 2.3699701,2.3699701 0 0 1 -1.41935,3.03627 2.3699701,2.3699701 0 0 1 -3.03627,-1.41935 2.3699701,2.3699701 0 0 1 1.41934,-3.03627 z m -1.38593,-3.81911 a 6.4327765,6.432776 70.054377 0 1 8.24132,3.85252 6.4327765,6.432776 70.054377 0 1 -3.85252,8.24132 6.4327765,6.432776 70.054377 0 1 -8.24131,-3.85252 6.4327765,6.432776 70.054377 0 1 3.85251,-8.24132 z m -23.18971,18.58369 6.91571,-1.29593 a 21.728366,21.728363 84.101669 0 0 2.37262,3.20373 21.728366,21.728363 84.101669 0 0 3.12363,2.85404 l -1.98682,6.77044 a 28.438594,28.438597 1.3290758 0 0 5.91941,2.81321 l 3.98153,-5.81502 a 21.728366,21.728363 84.101669 0 0 8.17735,0.40782 l 3.37726,6.18179 a 28.438594,28.438597 1.3290758 0 0 6.17371,-2.2039 l -1.29663,-6.93119 a 21.728366,21.728363 84.101669 0 0 3.21092,-2.36056 21.728366,21.728363 84.101669 0 0 2.8564,-3.12634 l 6.77117,1.98498 a 28.438594,28.438597 1.3290758 0 0 2.81163,-5.91919 l -5.81599,-3.98125 a 21.728366,21.728363 84.101669 0 0 0.40569,-8.17842 l 6.18186,-3.37854 a 28.438594,28.438597 1.3290758 0 0 -2.20576,-6.17381 l -6.93067,1.29856 a 21.728366,21.728363 84.101669 0 0 -2.35766,-3.20636 21.728366,21.728363 84.101669 0 0 -3.12365,-2.85403 l 1.98682,-6.77046 a 28.438594,28.438597 1.3290758 0 0 -5.91941,-2.81316 l -3.98184,5.81527 a 21.728366,21.728363 84.101669 0 0 -8.17705,-0.40749 l -3.37726,-6.18237 a 28.438594,28.438597 1.3290758 0 0 -6.17369,2.20383 l 1.29662,6.93121 a 21.728366,21.728363 84.101669 0 0 -3.21091,2.36056 21.728366,21.728363 84.101669 0 0 -2.86942,3.12247 l -6.75815,-1.98111 a 28.438594,28.438597 1.3290758 0 0 -2.81163,5.91919 l 5.81507,3.98089 a 21.728366,21.728363 84.101669 0 0 -0.40997,8.18163 l -6.17665,3.37569 a 28.438594,28.438597 1.3290758 0 0 2.20576,6.17381 z m 75.94147,-90.66209 a 33.905304,33.905304 0 0 1 32.4184,35.3297 33.905304,33.905304 0 0 1 -35.32969,32.4184 33.905304,33.905304 0 0 1 -32.41839,-35.32969 33.905304,33.905304 0 0 1 35.32968,-32.41841 z m -32.08037,31.22638 18.76124,4.19301 a 11.965393,11.965393 0 0 0 0.44034,1.99009 L 187.001,173.56049 a 30.751325,30.751324 3.2035361 0 0 3.21158,4.61083 l 16.23145,-10.30187 a 11.965393,11.965393 0 0 0 1.71161,1.10283 l -2.59859,19.04562 a 30.751325,30.751324 3.2035361 0 0 5.14203,0.97485 30.751325,30.751324 3.2035361 0 0 0.38743,0.024 l 4.193,-18.76126 a 11.965393,11.965393 0 0 0 1.99011,-0.44033 l 11.63261,15.30941 a 30.751325,30.751324 3.2035361 0 0 4.61078,-3.21084 l -10.30108,-16.23217 a 11.965393,11.965393 0 0 0 1.10207,-1.71166 l 19.04561,2.59859 a 30.751325,30.751324 3.2035361 0 0 0.97559,-5.14199 30.751325,30.751324 3.2035361 0 0 0.0247,-0.38739 l -18.76197,-4.19303 a 11.965393,11.965393 0 0 0 -0.44035,-1.99011 l 15.30943,-11.63338 a 30.751325,30.751324 3.2035361 0 0 -3.21162,-4.61007 l -16.23131,10.30106 a 11.965393,11.965393 0 0 0 -1.71234,-1.10286 l 2.59855,-19.04487 a 30.751325,30.751324 3.2035361 0 0 -5.14127,-0.97556 30.751325,30.751324 3.2035361 0 0 -0.38539,-0.0332 l -4.19501,18.77011 a 11.965393,11.965393 0 0 0 -1.99431,0.43561 l -11.63757,-15.31488 a 30.751325,30.751324 3.2035361 0 0 -4.61199,3.20625 l 10.30653,16.24145 a 11.965393,11.965393 0 0 0 -1.10317,1.71755 l -19.05522,-2.59986 a 30.751325,30.751324 3.2035361 0 0 -0.95999,5.14363 30.751325,30.751324 3.2035361 0 0 -0.0247,0.38737 z m 31.05373,-7.33525 a 9.9921398,9.9921398 0 0 1 9.55394,10.41192 9.9921398,9.9921398 0 0 1 -10.41192,9.55393 9.9921398,9.9921398 0 0 1 -9.55393,-10.41191 9.9921398,9.9921398 0 0 1 10.41191,-9.55394 z m -0.36692,8.53868 a 1.4455727,1.4455727 0 0 1 1.38217,1.50631 1.4455727,1.4455727 0 0 1 -1.5063,1.38217 1.4455727,1.4455727 0 0 1 -1.38217,-1.50629 1.4455727,1.4455727 0 0 1 1.5063,-1.38219 z m 0.0621,-1.44424 a 2.8911479,2.8911479 0 0 1 2.76436,3.01261 2.8911479,2.8911479 0 0 1 -3.01261,2.76435 2.8911479,2.8911479 0 0 1 -2.76436,-3.0126 2.8911479,2.8911479 0 0 1 3.01261,-2.76436 z m 2.91094,-27.7127 a 30.751324,30.751324 0 0 1 27.56611,33.63625 30.751324,30.751324 0 0 1 -33.63625,27.56612 30.751324,30.751324 0 0 1 -27.5661,-33.63625 30.751324,30.751324 0 0 1 33.63624,-27.56612 z m -45.82254,38.93984 a 43.620923,43.620909 2.4606146 0 0 2.08923,7.3524 l 7.41523,-1.39688 a 36.248373,36.248359 2.4606146 0 0 3.45375,6.28029 l -5.10288,5.50322 a 43.620923,43.620909 2.4606146 0 0 5.07218,5.71804 l 6.07488,-4.47606 a 36.248373,36.248359 2.4606146 0 0 5.83714,4.15973 l -2.20972,7.17237 a 43.620923,43.620909 2.4606146 0 0 7.05063,2.9506 l 3.53095,-6.66823 a 36.248373,36.248359 2.4606146 0 0 7.06382,1.2156 l 1.12144,7.42087 a 43.620923,43.620909 2.4606146 0 0 7.63233,-0.40069 l 0.28818,-7.54003 a 36.248373,36.248359 2.4606146 0 0 6.89168,-1.96988 l 4.22972,6.19914 a 43.620923,43.620909 2.4606146 0 0 6.70289,-3.67254 l -3.01181,-6.91818 a 36.248373,36.248359 2.4606146 0 0 5.35433,-4.76517 l 6.50087,3.75032 a 43.620923,43.620909 2.4606146 0 0 4.44609,-6.21708 l -5.71556,-4.92662 a 36.248373,36.248359 2.4606146 0 0 2.75646,-6.61619 l 7.48426,0.55847 a 43.620923,43.620909 2.4606146 0 0 1.30779,-7.53058 l -7.28669,-1.95868 a 36.248373,36.248359 2.4606146 0 0 -0.32146,-6.79992 36.248373,36.248359 2.4606146 0 0 -0.0573,-0.36028 l 6.9768,-2.74122 a 43.620923,43.620909 2.4606146 0 0 -2.08922,-7.3524 l -7.39064,1.3925 a 36.248373,36.248359 2.4606146 0 0 -3.47132,-6.28345 l 5.09588,-5.49572 a 43.620923,43.620909 2.4606146 0 0 -5.07214,-5.71764 l -6.05613,4.46235 a 36.248373,36.248359 2.4606146 0 0 -5.85281,-4.15541 l 2.20698,-7.16344 a 43.620923,43.620909 2.4606146 0 0 -7.05063,-2.9506 l -3.51919,6.64576 a 36.248373,36.248359 2.4606146 0 0 -7.07689,-1.20188 l -1.12015,-7.41212 a 43.620923,43.620909 2.4606146 0 0 -7.6323,0.4007 l -0.28818,7.54003 a 36.248373,36.248359 2.4606146 0 0 -6.8912,1.97022 l -4.23024,-6.19988 a 43.620923,43.620909 2.4606146 0 0 -6.70283,3.67293 l 3.01179,6.91818 a 36.248373,36.248359 2.4606146 0 0 -5.35433,4.76517 l -6.50126,-3.75025 a 43.620923,43.620909 2.4606146 0 0 -4.44568,6.21706 l 5.71555,4.92663 a 36.248373,36.248359 2.4606146 0 0 -2.75651,6.61579 l -7.48422,-0.55809 a 43.620923,43.620909 2.4606146 0 0 -1.30815,7.53067 l 7.28706,1.95859 a 36.248373,36.248359 2.4606146 0 0 0.32114,6.80036 36.248373,36.248359 2.4606146 0 0 0.0661,0.35663 z" />
  </g>
</svg>
